<svg width="192" height="192" viewBox="0 0 192 192" xmlns="http://www.w3.org/2000/svg">
  <!-- Background -->
  <rect width="192" height="192" rx="38" fill="#5a7c5a"/>
  
  <!-- Astrid (left) -->
  <g transform="translate(25, 35)">
    <circle cx="35" cy="35" r="28" fill="#f5f0e6"/>
    <!-- Hair -->
    <path d="M12 28 Q8 15 22 10 Q35 4 50 10 Q62 17 58 30 Q50 22 35 20 Q20 22 12 28" fill="#d4d4d4"/>
    <!-- Eyes -->
    <ellipse cx="25" cy="38" rx="4" ry="2.5" fill="#5a5a5a"/>
    <ellipse cx="45" cy="38" rx="4" ry="2.5" fill="#5a5a5a"/>
    <!-- Smile -->
    <path d="M22 50 Q35 60 48 50" stroke="#c9a088" stroke-width="2.5" fill="none" stroke-linecap="round"/>
    <!-- Glasses -->
    <circle cx="25" cy="38" r="9" stroke="#8b7355" stroke-width="2" fill="none"/>
    <circle cx="45" cy="38" r="9" stroke="#8b7355" stroke-width="2" fill="none"/>
    <line x1="34" y1="38" x2="36" y2="38" stroke="#8b7355" stroke-width="2"/>
  </g>
  
  <!-- Ivar (right) -->
  <g transform="translate(95, 35)">
    <circle cx="35" cy="35" r="28" fill="#f5f0e6"/>
    <!-- Hair -->
    <path d="M14 25 Q12 18 20 15 Q30 12 40 12 Q50 12 58 15 Q66 18 64 25 Q55 20 35 18 Q18 20 14 25" fill="#a0a0a0"/>
    <!-- Eyes -->
    <ellipse cx="25" cy="38" rx="3.5" ry="2.5" fill="#5a5a5a"/>
    <ellipse cx="45" cy="38" rx="3.5" ry="2.5" fill="#5a5a5a"/>
    <!-- Smile -->
    <path d="M22 50 Q35 62 48 50" stroke="#c9a088" stroke-width="2.5" fill="none" stroke-linecap="round"/>
  </g>
  
  <!-- Heart -->
  <path d="M96 115 L91 109 Q86 104 91 99 Q96 94 101 99 L96 104 L101 99 Q106 94 111 99 Q116 104 111 109 Z" fill="#e8c4b8" opacity="0.8"/>
  
  <!-- Text -->
  <text x="96" y="160" font-family="Georgia, serif" font-size="28" font-weight="400" text-anchor="middle" fill="#f5f0e6" opacity="0.9">mimre</text>
</svg>